<svg width="24" height="24" viewBox="0 0 24 24" fill="none" xmlns="http://www.w3.org/2000/svg">
<path d="M17 3.66667C18.8383 3.66667 20.3333 5.16167 20.3333 7V17C20.3333 18.8383 18.8383 20.3333 17 20.3333H7C5.16167 20.3333 3.66667 18.8383 3.66667 17V7C3.66667 5.16167 5.16167 3.66667 7 3.66667H17ZM17 2H7C4.23833 2 2 4.23833 2 7V17C2 19.7617 4.23833 22 7 22H17C19.7617 22 22 19.7617 22 17V7C22 4.23833 19.7617 2 17 2Z" fill="#6A707C"/>
<path d="M14 7C12.6739 7 11.4021 7.5268 10.4645 8.46447C9.5268 9.40213 9 10.6739 9 12C9 13.3261 9.5268 14.5979 10.4645 15.5355C11.4021 16.4732 12.6739 17 14 17V12V7Z" fill="#6A707C"/>
</svg>
