<svg width="22" height="22" viewBox="0 0 22 22" fill="none" xmlns="http://www.w3.org/2000/svg">
    <g clip-path="url(#clip0_600_2881)">
        <path d="M11 20C6.0372 20 2 15.9628 2 11C2 6.0372 6.0372 2 11 2C15.9628 2 20 6.0372 20 11C20 15.9628 15.9628 20 11 20ZM11 3.125C6.65752 3.125 3.125 6.65752 3.125 11C3.125 15.3425 6.65752 18.875 11 18.875C15.3425 18.875 18.875 15.3425 18.875 11C18.875 6.65752 15.3425 3.125 11 3.125Z" fill="black"/>
        <path d="M8.21568 14.3466C8.07162 14.3466 7.92757 14.2919 7.81812 14.1817C7.59839 13.9619 7.59839 13.6057 7.81812 13.386L13.3868 7.81714C13.6067 7.59741 13.9629 7.59741 14.1826 7.81714C14.4024 8.03687 14.4024 8.3931 14.1826 8.61296L8.6138 14.1817C8.50284 14.2919 8.35892 14.3466 8.21568 14.3466Z" fill="black"/>
        <path d="M13.7843 14.3464C13.6404 14.3464 13.4964 14.2917 13.3869 14.1814L7.81822 8.61341C7.59835 8.39369 7.59835 8.03746 7.81822 7.81773C8.03794 7.59787 8.39418 7.59787 8.6139 7.81773L14.1826 13.3864C14.4025 13.6062 14.4025 13.9624 14.1826 14.1821C14.0725 14.2917 13.9284 14.3464 13.7843 14.3464Z" fill="black"/>
    </g>
    <defs>
        <clipPath id="clip0_600_2881">
            <rect width="18" height="18" fill="white" transform="translate(2 2)"/>
        </clipPath>
    </defs>
</svg>
