<svg width="16" height="18" viewBox="0 0 16 18" fill="none" xmlns="http://www.w3.org/2000/svg">
    <path d="M5 4.3125C4.6925 4.3125 4.4375 4.0575 4.4375 3.75V1.5C4.4375 1.1925 4.6925 0.9375 5 0.9375C5.3075 0.9375 5.5625 1.1925 5.5625 1.5V3.75C5.5625 4.0575 5.3075 4.3125 5 4.3125Z" fill="#637BFF"/>
    <path d="M11 4.3125C10.6925 4.3125 10.4375 4.0575 10.4375 3.75V1.5C10.4375 1.1925 10.6925 0.9375 11 0.9375C11.3075 0.9375 11.5625 1.1925 11.5625 1.5V3.75C11.5625 4.0575 11.3075 4.3125 11 4.3125Z" fill="#637BFF"/>
    <path d="M5.375 10.8752C5.2775 10.8752 5.18 10.8527 5.09 10.8152C4.9925 10.7777 4.9175 10.7252 4.8425 10.6577C4.7075 10.5152 4.625 10.3277 4.625 10.1252C4.625 10.0277 4.6475 9.93023 4.685 9.84023C4.7225 9.75023 4.775 9.66773 4.8425 9.59273C4.9175 9.52523 4.9925 9.47273 5.09 9.43523C5.36 9.32273 5.6975 9.38273 5.9075 9.59273C6.0425 9.73523 6.125 9.93023 6.125 10.1252C6.125 10.1702 6.1175 10.2227 6.11 10.2752C6.1025 10.3202 6.0875 10.3652 6.065 10.4102C6.05 10.4552 6.0275 10.5002 5.9975 10.5452C5.975 10.5827 5.9375 10.6202 5.9075 10.6577C5.765 10.7927 5.57 10.8752 5.375 10.8752Z" fill="#637BFF"/>
    <path d="M8 10.8751C7.9025 10.8751 7.805 10.8526 7.715 10.8151C7.6175 10.7776 7.5425 10.7251 7.4675 10.6576C7.3325 10.5151 7.25 10.3276 7.25 10.1251C7.25 10.0276 7.2725 9.93014 7.31 9.84014C7.3475 9.75014 7.4 9.66764 7.4675 9.59264C7.5425 9.52514 7.6175 9.47264 7.715 9.43514C7.985 9.31514 8.3225 9.38264 8.5325 9.59264C8.6675 9.73514 8.75 9.93014 8.75 10.1251C8.75 10.1701 8.7425 10.2226 8.735 10.2751C8.7275 10.3201 8.7125 10.3651 8.69 10.4101C8.675 10.4551 8.6525 10.5001 8.6225 10.5451C8.6 10.5826 8.5625 10.6201 8.5325 10.6576C8.39 10.7926 8.195 10.8751 8 10.8751Z" fill="#637BFF"/>
    <path d="M10.625 10.8751C10.5275 10.8751 10.43 10.8526 10.34 10.8151C10.2425 10.7776 10.1675 10.7251 10.0925 10.6576C10.0625 10.6201 10.0325 10.5826 10.0025 10.5451C9.9725 10.5001 9.95 10.4551 9.935 10.4101C9.9125 10.3651 9.8975 10.3201 9.89 10.2751C9.8825 10.2226 9.875 10.1701 9.875 10.1251C9.875 9.93014 9.9575 9.73514 10.0925 9.59264C10.1675 9.52514 10.2425 9.47264 10.34 9.43514C10.6175 9.31514 10.9475 9.38264 11.1575 9.59264C11.2925 9.73514 11.375 9.93014 11.375 10.1251C11.375 10.1701 11.3675 10.2226 11.36 10.2751C11.3525 10.3201 11.3375 10.3651 11.315 10.4101C11.3 10.4551 11.2775 10.5001 11.2475 10.5451C11.225 10.5826 11.1875 10.6201 11.1575 10.6576C11.015 10.7926 10.82 10.8751 10.625 10.8751Z" fill="#637BFF"/>
    <path d="M5.375 13.4998C5.2775 13.4998 5.18 13.4774 5.09 13.4399C5 13.4024 4.9175 13.3498 4.8425 13.2823C4.7075 13.1398 4.625 12.9448 4.625 12.7498C4.625 12.6523 4.6475 12.5548 4.685 12.4648C4.7225 12.3673 4.775 12.2849 4.8425 12.2174C5.12 11.9399 5.63 11.9399 5.9075 12.2174C6.0425 12.3599 6.125 12.5548 6.125 12.7498C6.125 12.9448 6.0425 13.1398 5.9075 13.2823C5.765 13.4173 5.57 13.4998 5.375 13.4998Z" fill="#637BFF"/>
    <path d="M8 13.4998C7.805 13.4998 7.61 13.4173 7.4675 13.2823C7.3325 13.1398 7.25 12.9448 7.25 12.7498C7.25 12.6523 7.2725 12.5548 7.31 12.4648C7.3475 12.3673 7.4 12.2849 7.4675 12.2174C7.745 11.9399 8.255 11.9399 8.5325 12.2174C8.6 12.2849 8.6525 12.3673 8.69 12.4648C8.7275 12.5548 8.75 12.6523 8.75 12.7498C8.75 12.9448 8.6675 13.1398 8.5325 13.2823C8.39 13.4173 8.195 13.4998 8 13.4998Z" fill="#637BFF"/>
    <path d="M10.625 13.5002C10.43 13.5002 10.235 13.4177 10.0925 13.2827C10.025 13.2152 9.9725 13.1327 9.935 13.0352C9.8975 12.9452 9.875 12.8477 9.875 12.7502C9.875 12.6527 9.8975 12.5552 9.935 12.4652C9.9725 12.3677 10.025 12.2852 10.0925 12.2177C10.265 12.0452 10.5275 11.9627 10.7675 12.0152C10.82 12.0227 10.865 12.0377 10.91 12.0602C10.955 12.0752 11 12.0977 11.045 12.1277C11.0825 12.1502 11.12 12.1877 11.1575 12.2177C11.2925 12.3602 11.375 12.5552 11.375 12.7502C11.375 12.9452 11.2925 13.1402 11.1575 13.2827C11.015 13.4177 10.82 13.5002 10.625 13.5002Z" fill="#637BFF"/>
    <path d="M14.375 7.37988H1.625C1.3175 7.37988 1.0625 7.12488 1.0625 6.81738C1.0625 6.50988 1.3175 6.25488 1.625 6.25488H14.375C14.6825 6.25488 14.9375 6.50988 14.9375 6.81738C14.9375 7.12488 14.6825 7.37988 14.375 7.37988Z" fill="#637BFF"/>
    <path d="M11 17.0625H5C2.2625 17.0625 0.6875 15.4875 0.6875 12.75V6.375C0.6875 3.6375 2.2625 2.0625 5 2.0625H11C13.7375 2.0625 15.3125 3.6375 15.3125 6.375V12.75C15.3125 15.4875 13.7375 17.0625 11 17.0625ZM5 3.1875C2.855 3.1875 1.8125 4.23 1.8125 6.375V12.75C1.8125 14.895 2.855 15.9375 5 15.9375H11C13.145 15.9375 14.1875 14.895 14.1875 12.75V6.375C14.1875 4.23 13.145 3.1875 11 3.1875H5Z" fill="#637BFF"/>
</svg>
