<svg width="14" height="14" viewBox="0 0 14 14" fill="none" xmlns="http://www.w3.org/2000/svg">
    <circle opacity="0.36" cx="7" cy="7" r="7" fill="#D52E2F"/>
    <path fill-rule="evenodd" clip-rule="evenodd" d="M5 6.17296C5 4.97479 5.97479 4 7.17298 4C8.37115 4 9.34593 4.97479 9.34595 6.17296C9.34595 7.65993 7.40135 9.84289 7.31856 9.9351C7.24093 10.0216 7.10516 10.0217 7.02739 9.9351C6.9446 9.84289 5 7.65993 5 6.17296ZM6.08008 6.17286C6.08008 6.77569 6.57051 7.26614 7.17335 7.26614C7.77617 7.26614 8.2666 6.77571 8.2666 6.17287C8.2666 5.57003 7.77617 5.07959 7.17335 5.07959C6.57052 5.07959 6.08008 5.57002 6.08008 6.17286Z" fill="#D52E2F"/>
</svg>
