<svg width="24" height="24" viewBox="0 0 24 24" fill="none" xmlns="http://www.w3.org/2000/svg">
<path d="M20.444 7.82166C20.504 8.51612 20.5046 9.40253 20.5046 10.6458V11.6867C20.5046 13.2254 20.4964 13.8305 20.3494 14.304L20.4449 14.3337L20.3494 14.304C19.9812 15.4905 18.9981 16.4214 17.7368 16.7708L17.7635 16.8672L17.7368 16.7708C17.2328 16.9105 16.5894 16.9181 14.962 16.9181H14.4515H14.4514L14.3864 16.9182L14.3859 16.9182C13.2753 16.9249 12.193 17.2525 11.2843 17.8575L11.2838 17.8579L8.80224 19.5326L8.85818 19.6155L8.80224 19.5326C8.70855 19.5958 8.60126 19.5825 8.52608 19.5268C8.45162 19.4715 8.41724 19.3824 8.45698 19.2886C8.94077 18.1458 8.04695 16.9181 6.76596 16.9181H6.20619C4.70361 16.9181 3.49535 15.7686 3.49535 14.3622V10.6458C3.49535 9.40253 3.49598 8.51612 3.55603 7.82167C3.6153 7.13624 3.7284 6.70525 3.91427 6.36057C4.28293 5.67692 4.87179 5.12005 5.59737 4.77073C5.96415 4.59416 6.42246 4.48698 7.14916 4.43088C7.88501 4.37407 8.82399 4.37349 10.1395 4.37349H13.8605C15.176 4.37349 16.115 4.37407 16.8508 4.43088C17.5775 4.48698 18.0358 4.59416 18.4027 4.77073C19.1282 5.12005 19.717 5.67692 20.0857 6.36056C20.2716 6.70524 20.3847 7.13624 20.444 7.82166ZM20.444 7.82166L20.5436 7.81305L20.444 7.82168C20.444 7.82167 20.444 7.82167 20.444 7.82166ZM16.9799 2.91744L16.9722 3.01711L16.9799 2.91744C16.1721 2.85508 15.1687 2.85508 13.8964 2.85508H13.8917H10.1083H10.1036C8.83131 2.85508 7.82793 2.85508 7.02015 2.91744C6.19564 2.98109 5.50528 3.11341 4.87713 3.41582C3.85237 3.90917 3.01814 4.69691 2.49497 5.66709L2.58299 5.71456L2.49497 5.66709C2.17391 6.26248 2.03352 6.91682 1.96606 7.69709C1.9 8.46099 1.9 9.4096 1.9 10.6112V10.6163V14.3622C1.9 16.6177 3.83336 18.4365 6.20619 18.4365H6.76596C6.93446 18.4365 7.03178 18.5921 6.97725 18.7209L7.06934 18.7599L6.97725 18.7209C6.63701 19.5247 6.95965 20.2901 7.54534 20.7245C8.13032 21.1583 8.98631 21.2698 9.72515 20.7712L9.66921 20.6883L9.72516 20.7712L12.1535 19.1323L12.1537 19.1322L12.1989 19.1018C12.8418 18.6737 13.6085 18.4413 14.396 18.4366L14.4515 18.4365L14.4517 18.4365L14.962 18.4365H14.9623H14.9626H14.9629H14.9631H14.9634H14.9637H14.9639H14.9642H14.9645H14.9647H14.965H14.9653H14.9656H14.9658H14.9661H14.9664H14.9666H14.9669H14.9672H14.9674H14.9677H14.968H14.9683H14.9685H14.9688H14.9691H14.9693H14.9696H14.9699H14.9701H14.9704H14.9707H14.971H14.9712H14.9715H14.9718H14.972H14.9723H14.9726H14.9728H14.9731H14.9734H14.9737H14.9739H14.9742H14.9745H14.9747H14.975H14.9753H14.9755H14.9758H14.9761H14.9763H14.9766H14.9769H14.9772H14.9774H14.9777H14.978H14.9782H14.9785H14.9788H14.979H14.9793H14.9796H14.9799H14.9801H14.9804H14.9807H14.9809H14.9812H14.9815H14.9817H14.982H14.9823H14.9825H14.9828H14.9831H14.9834H14.9836H14.9839H14.9842H14.9844H14.9847H14.985H14.9852H14.9855H14.9858H14.986H14.9863H14.9866H14.9868H14.9871H14.9874H14.9877H14.9879H14.9882H14.9885H14.9887H14.989H14.9893H14.9895H14.9898H14.9901H14.9903H14.9906H14.9909H14.9912H14.9914H14.9917H14.992H14.9922H14.9925H14.9928H14.993H14.9933H14.9936H14.9938H14.9941H14.9944H14.9946H14.9949H14.9952H14.9955H14.9957H14.996H14.9963H14.9965H14.9968H14.9971H14.9973H14.9976H14.9979H14.9981H14.9984H14.9987H14.9989H14.9992H14.9995H14.9997H15H15.0003H15.0006H15.0008H15.0011H15.0014H15.0016H15.0019H15.0022H15.0024H15.0027H15.003H15.0032H15.0035H15.0038H15.004H15.0043H15.0046H15.0048H15.0051H15.0054H15.0056H15.0059H15.0062H15.0065H15.0067H15.007H15.0073H15.0075H15.0078H15.0081H15.0083H15.0086H15.0089H15.0091H15.0094H15.0097H15.0099H15.0102H15.0105H15.0107H15.011H15.0113H15.0115H15.0118H15.0121H15.0123H15.0126H15.0129H15.0131H15.0134H15.0137H15.0139H15.0142H15.0145H15.0148H15.015H15.0153H15.0156H15.0158H15.0161H15.0164H15.0166H15.0169H15.0172H15.0174H15.0177H15.018H15.0182H15.0185H15.0188H15.019H15.0193H15.0196H15.0198H15.0201H15.0204H15.0206H15.0209H15.0212H15.0214H15.0217H15.022H15.0222H15.0225H15.0228H15.023H15.0233H15.0236H15.0238H15.0241H15.0244H15.0246H15.0249H15.0252H15.0254H15.0257H15.026H15.0262H15.0265H15.0268H15.027H15.0273H15.0276H15.0278H15.0281H15.0284H15.0286H15.0289H15.0292H15.0294H15.0297H15.03H15.0303H15.0305H15.0308H15.0311H15.0313H15.0316H15.0319H15.0321H15.0324H15.0327H15.0329H15.0332H15.0335H15.0337H15.034H15.0343H15.0345H15.0348H15.0351H15.0353H15.0356H15.0359H15.0361H15.0364H15.0367H15.0369H15.0372H15.0374H15.0377H15.038H15.0382H15.0385H15.0388H15.039H15.0393H15.0396H15.0398H15.0401H15.0404H15.0406H15.0409H15.0412H15.0414H15.0417H15.042H15.0422H15.0425H15.0428H15.043H15.0433H15.0436H15.0438H15.0441H15.0444H15.0446H15.0449H15.0452H15.0454H15.0457H15.046H15.0462H15.0465H15.0468H15.047H15.0473H15.0476H15.0478H15.0481H15.0484H15.0486H15.0489H15.0492H15.0494H15.0497H15.05H15.0502H15.0505H15.0508H15.051H15.0513H15.0516H15.0518H15.0521H15.0524H15.0526H15.0529H15.0532H15.0534H15.0537H15.0539H15.0542H15.0545H15.0547H15.055H15.0553H15.0555H15.0558H15.0561H15.0563H15.0566H15.0569H15.0571H15.0574H15.0577H15.0579H15.0582H15.0585H15.0587H15.059H15.0593H15.0595H15.0598H15.0601H15.0603H15.0606H15.0609H15.0611H15.0614H15.0616H15.0619H15.0622H15.0624H15.0627H15.063H15.0632H15.0635H15.0638H15.064H15.0643H15.0646H15.0648H15.0651H15.0654H15.0656H15.0659H15.0662H15.0664H15.0667H15.067H15.0672H15.0675H15.0677H15.068H15.0683H15.0685H15.0688H15.0691H15.0693H15.0696H15.0699H15.0701H15.0704H15.0707H15.0709H15.0712H15.0715H15.0717H15.072H15.0723H15.0725H15.0728H15.0731H15.0733H15.0736H15.0738H15.0741H15.0744H15.0746H15.0749H15.0752H15.0754H15.0757H15.076H15.0762H15.0765H15.0768H15.077H15.0773H15.0776H15.0778H15.0781H15.0783H15.0786H15.0789H15.0791H15.0794H15.0797H15.0799H15.0802H15.0805H15.0807H15.081H15.0813H15.0815H15.0818H15.082H15.0823H15.0826H15.0828H15.0831H15.0834H15.0836H15.0839H15.0842H15.0844H15.0847H15.085H15.0852H15.0855H15.0858H15.086H15.0863H15.0865H15.0868H15.0871H15.0873H15.0876H15.0879H15.0881H15.0884H15.0887H15.0889H15.0892H15.0895H15.0897H15.09H15.0902H15.0905H15.0908H15.091H15.0913H15.0916H15.0918H15.0921H15.0924H15.0926H15.0929H15.0931H15.0934H15.0937H15.0939H15.0942H15.0945H15.0947H15.095H15.0953H15.0955H15.0958H15.0961H15.0963H15.0966H15.0968H15.0971H15.0974H15.0976H15.0979H15.0982H15.0984H15.0987L15.1175 18.4365C16.5415 18.4367 17.4319 18.4368 18.1829 18.2287C19.9618 17.7359 21.3562 16.4204 21.8794 14.7343C22.1003 14.0226 22.1002 13.1792 22.1 11.8361L22.1 11.8158V11.6867V10.6163V10.6117C22.1 9.4099 22.1 8.46111 22.0339 7.69709C21.9665 6.91682 21.8261 6.26248 21.505 5.6671L21.417 5.71456L21.505 5.66709C20.9818 4.69692 20.1476 3.90917 19.1228 3.41582C18.4947 3.11341 17.8043 2.98109 16.9799 2.91744Z" fill="#6A707C" stroke="#6A707C" stroke-width="0.2"/>
</svg>
