<svg width="24" height="24" viewBox="0 0 24 24" fill="none" xmlns="http://www.w3.org/2000/svg">
<path d="M6.68446 6.79992C6.68446 9.56886 9.08103 11.7998 12 11.7998C14.919 11.7998 17.3156 9.56886 17.3156 6.79992C17.3156 4.03097 14.919 1.8 12 1.8C9.08103 1.8 6.68446 4.03097 6.68446 6.79992ZM8.18318 6.79992C8.18318 4.84396 9.8834 3.23093 12 3.23093C14.1166 3.23093 15.8169 4.84396 15.8169 6.79992C15.8169 8.75588 14.1166 10.3689 12 10.3689C9.8834 10.3689 8.18318 8.75588 8.18318 6.79992ZM5.53093 22.2H18.4691C19.9629 22.2 21.2 21.0569 21.2 19.6252V18.1396C21.2 14.9259 18.4179 12.3332 15.0249 12.3332H8.97507C5.58213 12.3332 2.8 14.9259 2.8 18.1396V19.6252C2.8 21.0569 4.03711 22.2 5.53093 22.2ZM4.29872 18.1396C4.29872 15.7389 6.3845 13.7641 8.97507 13.7641H15.025C17.6155 13.7641 19.7013 15.7389 19.7013 18.1396V19.6252C19.7013 20.244 19.1606 20.7691 18.4691 20.7691H5.53093C4.83948 20.7691 4.29872 20.244 4.29872 19.6252V18.1396Z" fill="#6A707C" stroke="#6A707C" stroke-width="0.4"/>
</svg>
