<svg width="24" height="24" viewBox="0 0 24 24" fill="none" xmlns="http://www.w3.org/2000/svg">
<path d="M21.505 19.8426L21.5049 19.8425L17.0272 15.4365C18.1888 14.0939 18.8969 12.3567 18.8969 10.4526V10.4526C18.8963 6.19455 15.3902 2.75 11.0732 2.75C6.75621 2.75 3.25 6.19455 3.25 10.4526C3.25 14.7107 6.75621 18.1552 11.0732 18.1552C12.8588 18.1552 14.5036 17.564 15.8203 16.5725L20.3299 21.0101C20.6545 21.33 21.1798 21.33 21.5045 21.0101C21.8318 20.6883 21.8317 20.1645 21.505 19.8426ZM11.0732 16.5086C7.66844 16.5086 4.91524 13.7935 4.91524 10.4526C4.91524 7.11174 7.66844 4.39663 11.0732 4.39663C14.4779 4.39663 17.2311 7.11174 17.2311 10.4526C17.2311 13.7935 14.4779 16.5086 11.0732 16.5086Z" fill="#6A707C" stroke="#6A707C" stroke-width="0.5"/>
</svg>
